<?xml version="1.0" encoding="UTF-8" standalone="no"?>
<!DOCTYPE svg PUBLIC "-//W3C//DTD SVG 1.1//EN" "http://www.w3.org/Graphics/SVG/1.1/DTD/svg11.dtd">
<svg width="100%" height="100%" viewBox="0 0 680 262" version="1.1" xmlns="http://www.w3.org/2000/svg" xmlns:xlink="http://www.w3.org/1999/xlink" xml:space="preserve" xmlns:serif="http://www.serif.com/" style="fill-rule:evenodd;clip-rule:evenodd;stroke-linejoin:round;stroke-miterlimit:2;">
    <g transform="matrix(1,0,0,1,-498.031,-2145.56)">
        <g transform="matrix(1,0,0,1,0,-30.1375)">
            <g transform="matrix(1.26873,0,0,1.26873,498.031,2175.7)">
                <g>
                    <g transform="matrix(1,0,0,1,74.2535,168.087)">
                        <path d="M0,-42.443L-50.691,-42.443L-44.057,-80.234L38.925,-80.234C56.265,-80.234 66.821,-71.253 70.596,-53.296C71.304,-49.807 71.746,-46.189 71.923,-42.443L43.348,-42.443C42.464,-53.296 36.683,-58.722 26.009,-58.722L2.831,-58.722L0,-42.443ZM-53.346,-27.521L-2.654,-27.521L-10.351,16.473L11.324,16.473C26.244,15.57 34.767,9.108 36.89,-2.907L41.225,-27.521L71.215,-27.521C71.156,-27.26 71.127,-26.872 71.127,-26.358L67.146,-3.683C65.376,4.069 62.751,10.982 59.272,17.055C51.369,30.881 37.893,37.791 18.843,37.791L-64.758,37.791L-53.346,-27.521Z" style="fill:rgb(199,34,44);fill-rule:nonzero;"/>
                    </g>
                    <g transform="matrix(1,0,0,1,74.2535,168.087)">
                        <path d="M0,-42.443L-50.691,-42.443L-44.057,-80.234L38.925,-80.234C56.265,-80.234 66.821,-71.253 70.596,-53.296C71.304,-49.807 71.746,-46.189 71.923,-42.443L43.348,-42.443C42.464,-53.296 36.683,-58.722 26.009,-58.722L2.831,-58.722L0,-42.443Z" style="fill:rgb(62,62,63);fill-rule:nonzero;"/>
                    </g>
                    <g transform="matrix(1,0,0,1,167.762,205.878)">
                        <path d="M0,-118.219L50.691,-118.219L44.057,-80.234L-6.635,-80.234L0,-118.219ZM-20.701,0L-9.289,-65.312L41.402,-65.312L29.99,0L-20.701,0Z" style="fill:rgb(199,34,44);fill-rule:nonzero;"/>
                    </g>
                    <g transform="matrix(1,0,0,1,167.762,205.878)">
                        <path d="M0,-118.219L50.691,-118.219L44.057,-80.234L-6.635,-80.234L0,-118.219Z" style="fill:rgb(62,62,63);fill-rule:nonzero;"/>
                    </g>
                    <g transform="matrix(1.62363,0,0,1.62363,-606.407,-1136.32)">
                        <path d="M667.129,815.164L665.119,826.666L633.735,826.666L615.428,786.441L646.921,786.441L652.206,798.258L654.276,786.441L672.148,786.441L670.125,798.016L661.299,798.016L661.299,815.164L667.129,815.164ZM588.457,826.666L595.485,786.441L613.411,786.441L606.382,826.666L588.457,826.666ZM667.587,812.545L663.918,812.545L663.918,800.635L669.668,800.635L667.587,812.545ZM673.783,777.25L655.911,777.25L659.998,753.855L677.869,753.855L673.783,777.25ZM632.427,753.855L642.834,777.25L597.12,777.25L601.206,753.855L632.427,753.855Z" style="fill:rgb(199,34,44);fill-rule:nonzero;"/>
                    </g>
                    <g transform="matrix(1,0,0,1,276.841,167.893)">
                        <path d="M0,-42.249L-49.099,-42.249C-48.391,-44.187 -47.625,-46.028 -46.798,-47.772C-45.973,-49.517 -45.06,-51.291 -44.056,-53.102C-33.854,-71.189 -20.112,-80.234 -2.831,-80.234L79.974,-80.234L76.17,-58.528L25.566,-58.528C13.358,-58.528 4.835,-53.102 0,-42.249M-7.254,-3.489C-8.258,2.713 -7.299,7.625 -4.379,11.241C-1.46,14.859 3.627,16.667 10.882,16.667L62.988,16.667L59.272,37.985L-24.593,37.985C-43.291,37.985 -54.201,31.075 -57.326,17.249C-58.624,11.307 -58.83,4.394 -57.945,-3.489L-53.964,-26.164C-53.906,-26.42 -53.876,-26.615 -53.876,-26.745C-53.876,-26.872 -53.818,-27.066 -53.699,-27.327L70.685,-27.327L67.854,-11.241L-5.928,-11.241L-7.254,-3.489Z" style="fill:rgb(199,34,44);fill-rule:nonzero;"/>
                    </g>
                    <g transform="matrix(1,0,0,1,276.841,167.893)">
                        <path d="M0,-42.249L-49.099,-42.249C-48.391,-44.187 -47.625,-46.028 -46.798,-47.772C-45.973,-49.517 -45.06,-51.291 -44.056,-53.102C-33.854,-71.189 -20.112,-80.234 -2.831,-80.234L79.974,-80.234L76.17,-58.528L25.566,-58.528C13.358,-58.528 4.835,-53.102 0,-42.249" style="fill:rgb(62,62,63);fill-rule:nonzero;"/>
                    </g>
                    <g transform="matrix(1,0,0,1,487.567,167.893)">
                        <path d="M0,-42.249L-29.017,-42.249L-22.382,-80.234L6.635,-80.234L0,-42.249ZM-67.146,-80.234L-50.249,-42.249L-124.472,-42.249L-117.837,-80.234L-67.146,-80.234Z" style="fill:rgb(62,62,63);fill-rule:nonzero;"/>
                    </g>
                    <g transform="matrix(1,0,0,1,0.0001,35.7132)">
                        <path d="M0,11.242C3.165,13.029 6.489,13.88 9.716,14.893C21.943,18.731 34.381,21.674 47.075,23.578C67.1,26.583 86.766,25.692 106.117,19.266C120.331,14.546 134.283,9.159 148.229,3.731C160.875,-1.191 173.542,-6.105 186.581,-9.892C202.704,-14.576 219.037,-18.161 236.029,-17.534C244.37,-17.226 252.512,-15.719 260.635,-14.05C272.276,-11.658 283.598,-8.124 294.841,-4.322C309.674,0.692 324.261,6.372 338.932,11.826C345.981,14.447 353.062,17.013 360.509,18.334C364.128,18.977 367.807,18.793 371.426,18.562C382.829,17.836 394.237,18.339 405.639,18.144C423.808,17.833 441.938,18.705 459.976,20.724C477.966,22.738 495.706,26.106 512.561,33.072C520.219,36.237 527.194,40.468 533.379,45.986C534.022,46.559 534.479,47.492 535.762,47.492C534.263,43.367 531.507,40.224 528.587,37.331C519.653,28.476 508.924,22.425 497.284,17.795C484.286,12.626 470.695,9.882 456.921,8.117C447.629,6.927 438.237,6.446 428.856,6.13C418.154,5.77 407.448,5.43 396.744,5.738C390.541,5.916 384.321,5.82 378.138,6.199C369.118,6.751 361.002,4.579 352.889,0.627C339.864,-5.718 326.265,-10.826 312.678,-15.904C300.762,-20.357 288.768,-24.608 276.542,-28.099C262.157,-32.207 247.691,-36.25 232.483,-35.654C220.882,-35.2 209.572,-32.944 198.36,-30.02C184.444,-26.392 170.956,-21.521 157.552,-16.4C137.635,-8.789 118.106,-0.156 97.874,6.612C84.482,11.092 70.894,14.614 56.494,14.558C37.999,14.488 19.585,13.875 1.314,10.811C0.935,10.748 0.543,10.696 0,11.242" style="fill:rgb(199,34,44);fill-rule:nonzero;"/>
                    </g>
                    <g transform="matrix(1.62363,0,0,1.62363,-606.407,-1136.32)">
                        <path d="M689.51,786.441L689.51,800.635L703.466,800.635L703.466,812.545L689.51,812.545L689.51,826.666L677.802,826.666L677.802,812.545L663.918,812.545L663.918,800.635L677.802,800.635L677.802,786.441L689.51,786.441Z" style="fill:rgb(62,62,63);fill-rule:nonzero;"/>
                    </g>
                </g>
            </g>
        </g>
    </g>
</svg>
